<?xml version="1.0" standalone="no"?><!DOCTYPE svg PUBLIC "-//W3C//DTD SVG 1.1//EN" "http://www.w3.org/Graphics/SVG/1.1/DTD/svg11.dtd"><svg t="1529918681998" class="icon" style="" viewBox="0 0 1024 1024" version="1.1" xmlns="http://www.w3.org/2000/svg" p-id="679" xmlns:xlink="http://www.w3.org/1999/xlink" width="200" height="200"><defs><style type="text/css"></style></defs><path d="M896 256h128V128A128 128 0 0 0 896 0H768v128a128.09 128.09 0 0 0-122.35 165.62 256.19 256.19 0 0 0-267.26 0A128.09 128.09 0 0 0 256 128V0H128A128 128 0 0 0 0 128v128h128a128.09 128.09 0 0 0 165.6 122.38 256.21 256.21 0 0 0 0 267.23A128.09 128.09 0 0 0 128 768H0v128a128 128 0 0 0 128 128h128V896a128.09 128.09 0 0 0 122.38-165.61 256.19 256.19 0 0 0 267.26 0A128.09 128.09 0 0 0 768 896v128h128a128 128 0 0 0 128-128V768H896a128.09 128.09 0 0 0-165.6-122.38 256.17 256.17 0 0 0 0-267.24A128.09 128.09 0 0 0 896 256z" p-id="680"></path></svg>